<svg width="63" height="50" viewBox="0 0 63 50" fill="none" xmlns="http://www.w3.org/2000/svg">
<path d="M32.0145 0C33.6834 0.00937559 37.8586 0.050003 42.2964 0.228139L43.8715 0.296893C48.3374 0.506281 52.8002 0.868804 55.0159 1.48447C57.9692 2.31577 60.2881 4.73467 61.0726 7.80361C62.3226 12.6789 62.4789 22.1858 62.4977 24.489L62.5008 24.9641V25.5078C62.4789 27.8111 62.3226 37.3211 61.0726 42.1933C60.2788 45.2716 57.9567 47.6936 55.0159 48.5124C52.8002 49.1281 48.3374 49.4906 43.8715 49.7L42.2964 49.7719C37.8586 49.9469 33.6834 49.9906 32.0145 49.9969L31.2801 50H30.4832C26.9517 49.9781 12.182 49.8187 7.48172 48.5124C4.53153 47.6811 2.20951 45.2622 1.42509 42.1933C0.175011 37.318 0.0187512 27.8111 0 25.5078V24.489C0.0187512 22.1858 0.175011 12.6758 1.42509 7.80361C2.21889 4.7253 4.54091 2.30327 7.48484 1.48759C12.182 0.178136 26.9548 0.0187512 30.4863 0H32.0145ZM24.9984 14.0634V35.9397L43.7496 25.0016L24.9984 14.0634Z" fill="white"/>
</svg>
